HIERARCHY
ROOT pelvis
{
	OFFSET 0.000000 0.657198 -0.000000
	CHANNELS 6 Xposition Yposition Zposition Xrotation Yrotation Zrotation
	JOINT spine
	{
		OFFSET 0.000000 0.000000 0.000000
		CHANNELS 6 Xposition Yposition Zposition Xrotation Yrotation Zrotation
		JOINT spine.001
		{
			OFFSET 0.000000 0.219692 0.011514
			CHANNELS 3 Xrotation Yrotation Zrotation
			JOINT neck
			{
				OFFSET 0.000000 0.218353 -0.026810
				CHANNELS 6 Xposition Yposition Zposition Xrotation Yrotation Zrotation
				JOINT face
				{
					OFFSET 0.000000 0.147260 -0.002570
					CHANNELS 6 Xposition Yposition Zposition Xrotation Yrotation Zrotation
					End Site
					{
						OFFSET 0.000000 -0.006518 0.024914
					}
				}
			}
			JOINT shoulder.L
			{
				OFFSET 0.000000 0.218353 -0.026810
				CHANNELS 6 Xposition Yposition Zposition Yrotation Xrotation Zrotation
				JOINT upper_arm.L
				{
					OFFSET 0.140826 0.000000 0.000000
					CHANNELS 6 Xposition Yposition Zposition Xrotation Yrotation Zrotation
					JOINT forearm.L
					{
						OFFSET 0.217520 0.000806 -0.000097
						CHANNELS 6 Xposition Yposition Zposition Xrotation Yrotation Zrotation
						End Site
						{
							OFFSET 0.163457 -0.001106 0.002764
						}
					}
				}
			}
			JOINT shoulder.R
			{
				OFFSET 0.000000 0.218353 -0.026810
				CHANNELS 6 Xposition Yposition Zposition Yrotation Xrotation Zrotation
				JOINT upper_arm.R
				{
					OFFSET -0.140826 0.000000 0.000000
					CHANNELS 6 Xposition Yposition Zposition Xrotation Yrotation Zrotation
					JOINT forearm.R
					{
						OFFSET -0.224204 0.000806 -0.000097
						CHANNELS 6 Xposition Yposition Zposition Xrotation Yrotation Zrotation
						End Site
						{
							OFFSET -0.162731 -0.001106 0.002751
						}
					}
				}
			}
		}
	}
	JOINT pelvis.L
	{
		OFFSET 0.000000 0.000000 0.000000
		CHANNELS 6 Xposition Yposition Zposition Yrotation Xrotation Zrotation
		End Site
		{
			OFFSET 0.091885 0.000000 0.000000
		}
	}
	JOINT pelvis.R
	{
		OFFSET 0.000000 0.000000 0.000000
		CHANNELS 6 Xposition Yposition Zposition Yrotation Xrotation Zrotation
		End Site
		{
			OFFSET -0.091885 0.000000 0.000000
		}
	}
	JOINT thigh.L
	{
		OFFSET 0.091885 0.000000 0.000000
		CHANNELS 6 Xposition Yposition Zposition Xrotation Yrotation Zrotation
		JOINT shin.L
		{
			OFFSET 0.016098 -0.307172 0.000000
			CHANNELS 6 Xposition Yposition Zposition Xrotation Yrotation Zrotation
			JOINT foot.L
			{
				OFFSET 0.014827 -0.282918 0.000000
				CHANNELS 6 Xposition Yposition Zposition Xrotation Yrotation Zrotation
				End Site
				{
					OFFSET 0.014923 -0.063895 0.152161
				}
			}
		}
	}
	JOINT thigh.R
	{
		OFFSET -0.091885 0.000000 0.000000
		CHANNELS 6 Xposition Yposition Zposition Xrotation Yrotation Zrotation
		JOINT shin.R
		{
			OFFSET -0.016176 -0.308658 0.000000
			CHANNELS 6 Xposition Yposition Zposition Xrotation Yrotation Zrotation
			JOINT foot.R
			{
				OFFSET -0.014947 -0.285213 0.000000
				CHANNELS 6 Xposition Yposition Zposition Xrotation Yrotation Zrotation
				End Site
				{
					OFFSET -0.014766 -0.063222 0.150557
				}
			}
		}
	}
}
MOTION
Frames: 4
Frame Time: 0.041667
-0.016861 -0.010047 0.000264 -0.000000 -5.995769 -0.000000 0.000000 -0.000000 -0.000000 -8.728626 -0.105977 0.819991 10.004245 1.983406 -0.243622 0.000000 0.218354 -0.026810 12.137394 -23.779568 15.962203 0.000000 0.147260 -0.002570 6.057810 0.000010 -0.000002 -0.000000 0.218353 -0.026810 0.340498 -0.008242 2.774474 0.140826 0.000000 0.000000 -39.660357 -40.719112 -88.724342 0.217520 0.000806 -0.000097 -41.187506 -35.924667 -100.344597 0.000000 0.218353 -0.026810 0.334279 -0.007945 2.723405 -0.140826 -0.000000 0.000000 -35.999871 41.827327 81.103831 -0.224204 0.000806 -0.000097 127.461671 135.097604 -78.713627 -0.000000 0.000000 0.000000 0.000078 0.000001 2.565388 0.000000 0.000000 0.000000 0.000000 -0.000000 2.565387 0.091793 0.004113 -0.000000 4.502815 0.018404 -5.531787 0.016098 -0.307172 0.000000 2.642832 0.288953 6.476957 0.014827 -0.282918 0.000000 -14.825095 -3.588828 -0.543739 -0.091793 -0.004113 0.000000 0.506164 0.005182 7.171358 -0.016176 -0.308658 0.000000 8.927327 -0.743556 -3.503168 -0.014947 -0.285213 0.000000 -13.094098 4.516541 1.188136 
-0.015612 -0.010430 -0.000620 -0.000000 -6.009139 -0.000000 0.000000 -0.000000 -0.000000 -8.715243 -0.107075 0.829206 10.004216 1.987651 -0.244151 0.000000 0.218353 -0.026810 12.134754 -24.026548 15.946926 0.000000 0.147260 -0.002570 6.175165 -0.000006 -0.000007 0.000000 0.218353 -0.026810 0.333450 -0.007905 2.717450 0.140826 -0.000000 0.000000 -39.346008 -40.601943 -88.409969 0.217520 0.000806 -0.000097 -41.344733 -35.801714 -100.796626 -0.000000 0.218354 -0.026810 0.327251 -0.007613 2.666427 -0.140826 -0.000000 -0.000000 -36.070502 41.812871 81.243768 -0.224204 0.000806 -0.000097 127.463105 135.094120 -78.720444 0.000000 0.000000 -0.000000 -0.000034 0.000001 2.545186 0.000000 0.000000 -0.000000 0.000000 -0.000000 2.545223 0.091794 0.004080 0.000000 4.452370 0.014700 -5.621701 0.016098 -0.307172 0.000000 2.557469 0.279381 6.466552 0.014827 -0.282918 0.000000 -14.859133 -3.584596 -0.538893 -0.091794 -0.004080 -0.000000 0.372042 0.003451 7.062448 -0.016176 -0.308658 0.000000 9.070310 -0.751286 -3.450264 -0.014947 -0.285213 0.000000 -13.242416 4.574283 1.212297 
-0.014534 -0.010610 -0.001230 -0.000000 -6.093175 -0.000000 0.000000 -0.000000 -0.000000 -8.766804 -0.106152 0.819190 10.004742 2.099613 -0.257919 0.000000 0.218353 -0.026810 12.330296 -24.077848 16.052411 0.000000 0.147260 -0.002570 6.215105 0.000001 -0.000010 0.000000 0.218353 -0.026811 0.335679 -0.008013 2.734722 0.140826 0.000000 -0.000000 -38.943819 -40.377701 -88.117930 0.217520 0.000806 -0.000097 -41.640597 -35.616602 -101.562809 -0.000000 0.218353 -0.026811 0.329418 -0.007717 2.683698 -0.140826 -0.000000 0.000000 -36.085471 41.721456 81.404203 -0.224204 0.000806 -0.000097 127.594217 135.096702 -78.878508 -0.000000 -0.000000 -0.000000 0.000091 -0.000002 2.530378 0.000000 0.000000 -0.000000 -0.000001 0.000000 2.530378 0.091795 0.004057 0.000000 4.445432 0.013023 -5.664373 0.016098 -0.307172 0.000000 2.451051 0.265727 6.372710 0.014827 -0.282918 0.000000 -14.931477 -3.497056 -0.482531 -0.091795 -0.004057 -0.000000 0.252824 0.002101 6.950944 -0.016176 -0.308658 0.000000 9.233851 -0.759063 -3.378577 -0.014947 -0.285213 0.000000 -13.377636 4.683309 1.266603 
-0.013511 -0.010657 -0.001671 -0.000000 -6.145826 -0.000000 0.000000 -0.000000 -0.000000 -8.862604 -0.103056 0.790109 10.005679 2.312793 -0.284131 0.000000 0.218353 -0.026810 12.588752 -24.094141 16.239103 0.000000 0.147260 -0.002570 6.212486 0.000014 -0.000004 0.000000 0.218353 -0.026810 0.343459 -0.008391 2.799012 0.140826 -0.000000 -0.000000 -38.882491 -40.252668 -88.213266 0.217520 0.000806 -0.000097 -41.496323 -35.602590 -101.376072 0.000000 0.218353 -0.026810 0.337231 -0.008087 2.747990 -0.140826 -0.000000 0.000000 -36.036058 41.617893 81.474991 -0.224204 0.000806 -0.000097 127.675469 134.978663 -79.150554 -0.000000 -0.000000 0.000000 0.000100 -0.000002 2.529151 0.000000 0.000000 0.000000 0.000000 -0.000000 2.529151 0.091795 0.004055 0.000000 4.441789 0.011670 -5.698903 0.016098 -0.307172 0.000000 2.351812 0.252721 6.264801 0.014827 -0.282918 0.000000 -14.998464 -3.414876 -0.429573 -0.091795 -0.004055 -0.000000 0.149661 0.001107 6.842838 -0.016176 -0.308658 0.000000 9.403290 -0.765648 -3.289125 -0.014947 -0.285213 0.000000 -13.485254 4.755748 1.301899 
